<svg id="flower" xmlns="http://www.w3.org/2000/svg" viewBox="0 0 457.9193 610.7465"><defs><style>.cls-1{fill:#c8703f;}.cls-2{fill:#ceaa80;}.cls-3{fill:none;stroke:#354b45;stroke-width:4px;}.cls-4{fill:#354b45;}</style></defs><g id="flower-right"><path class="cls-1" d="M382.0119,223.2612c-49.1776,43.2106,30.3679,149.1059,64.942,195.5538,15.4923,20.4935,50.7775,17.3676,94.9684-52.4048,55.2384-87.2149,35.2655-187.8577-30.9852-171.0962-30.5344,7.7251-39.304,67.8752-36.837,86.3566C468.1,249.2229,434.56,181.9041,382.0119,223.2612Z" transform="translate(-116.0405 -70.2144)"/><path class="cls-2" d="M432.814,265.3162c-24.6092,15.3974,11.3621,91.8549,30.3992,120.1569,8.5248,12.4918,26.9957,11.2991,48.8833-29.3952,27.3591-50.8677,13.1231-93.1227-21.3535-84.4-15.89,4.02-17.5155,21.6276-15.87,32.6753C471.1074,284.9257,457.4231,249.9187,432.814,265.3162Z" transform="translate(-116.0405 -70.2144)"/><path class="cls-3" d="M470.1741,449.04c-17.7785,33.0177-83.5052,91.3063-51.3436,231.4738" transform="translate(-116.0405 -70.2144)"/><path class="cls-4" d="M469.5087,453.8579l24.64-26.9681,22.5018-24.6278-42.6261-1.17-42.626-1.17L450.4537,426.89Z" transform="translate(-116.0405 -70.2144)"/></g><g id="flower-left"><path class="cls-1" d="M119.7311,195.6384C95.0169,244.92,200.5168,298.2812,255.01,317.8572c24.2414,8.5057,67.1909,1.26,57.2038-108.4367C310,106.2081,232.9993,36.4877,187.0735,87.0932c-21.167,23.3235,2.4273,87.4568,14.704,101.49C178.8327,164.8684,130.8071,162.41,119.7311,195.6384Z" transform="translate(-116.0405 -70.2144)"/><path class="cls-2" d="M166.627,198.7437c-11.9872,26.4386,60.2677,70.2441,91.781,83.2949,14.0111,5.6927,28.74-5.5166,24.4693-51.5259-5.339-57.5112-34.5143-114.8173-58.4139-88.4823-11.0154,12.1374-8.6865,57.6811-1.2056,65.9755C209.376,193.9026,178.614,172.3051,166.627,198.7437Z" transform="translate(-116.0405 -70.2144)"/><path class="cls-3" d="M293.8162,310.473c3.4488,37.3409,105.2377,242.7,210.4753,292.321" transform="translate(-116.0405 -70.2144)"/><path class="cls-4" d="M301.4741,335.5308l10.74-69.059-36.1606,22.6-36.1606,22.6Z" transform="translate(-116.0405 -70.2144)"/></g></svg>