<?xml version="1.0" encoding="utf-8"?>
<!-- Generator: Adobe Illustrator 25.3.1, SVG Export Plug-In . SVG Version: 6.00 Build 0)  -->
<svg version="1.1" id="Layer_1" xmlns="http://www.w3.org/2000/svg" xmlns:xlink="http://www.w3.org/1999/xlink" x="0px" y="0px"
	 viewBox="0 0 2683 1304.3" style="enable-background:new 0 0 2683 1304.3;" xml:space="preserve">
<style type="text/css">
	.st0{fill:#241C0D;}
	.st1{fill:#D1CAC3;}
	.st2{fill:#354B45;}
	.st3{fill:#36594F;}
	.st4{fill:#DEC0AD;}
	.st5{fill:#BF6B21;}
	.st6{fill:#D8BC9E;}
	.st7{fill:#EBE5E1;}
</style>
<path class="st0" d="M0-515.1V394c0,0,142.1-67.7,302-3c178,72,119,247,409,285c193.5,25.4,287.8,33.3,347,183.9
	c59.2,150.6,168,101.2,265,64.4c34.5-13.1,83.1-34.9,171.2-0.1s146.9,20.2,169.4-17.7s31.9-108,66.9-144
	c51-52.6,140.6-46.5,243.5-70.5c120-28,196.6-137.8,249-182c232-196,460-67,460-67V105v-620.1H0z"/>
<path class="st1" d="M1339.4,1149.5c0,0-37.3-23.4-16.4-31.3s60.7-24.8,60.7-24.8s316-82.1,345.1-66.8
	c29.1,15.3,14.6,31.6,29.1,15.3s52.1-27.9,52.1-27.9s-17.3,24.9-6.7,42.1s29.4,62.5,18,105.4c42.3,4.5,50.1,13.3,50.1,13.3
	l-75.1,31.7c0,0-171.8,95.9-370.3,64.6c-13.7,18.2-21.5,28.3-47.3,33.3c-0.3-7,14.1-3-12.7-79.1S1339.4,1149.5,1339.4,1149.5z"/>
<path class="st2" d="M1705.3,1207.3c0,0,11.7-5.3,25,8c4,4,8,18.5-3,16.3c-10-2.1-10.3-3.8-20-1.3c-15,4-33,13-37,15l-8.3-19.6
	L1705.3,1207.3z"/>
<path class="st3" d="M1474.3,959.2c9.1-21.9,17.9-48.8,76.5-30.8s136.9-14.2,181.6,69c43,80,18,110.2-29,119.6
	s-254.3,17.8-254.3,17.8S1457.3,1000.1,1474.3,959.2z"/>
<path class="st4" d="M1652.3,1236.3c0,0,24.4-12.4,28-4l3,7l-32,15C1651.3,1254.3,1650.3,1249.3,1652.3,1236.3"/>
<path class="st5" d="M1493.7,1223c0,0,61.7,32.7,110.6,31.3s52,5.5,62-7c4.4-5.5,1-28,1-28S1504,1234.7,1493.7,1223z"/>
<path class="st5" d="M1584.7,1108.2c0,0,91.2,12.7,143.6-6.9c67-25,85,49,29.3,86.8c-15.5,10.5-70.4,41.6-102.3,52.2
	c-7.5,2.5-89,13.9-179-17c-18.2-6.2-40-12-64-35c-107-116,66-87,100-85S1584.7,1108.2,1584.7,1108.2"/>
<path class="st6" d="M1749.1,1228.1v-6.7c0-0.9-0.7-1.7-1.7-1.7h-56.9c-0.9,0-1.7,0.7-1.7,1.7l0,0v66.1c0,0.9,0.7,1.7,1.7,1.7l0,0
	h56.9c0.9,0,1.7-0.7,1.7-1.7v-15.3c4.4-0.4,8.7-1.4,12.8-3.1c9.5-4.3,20.5-11.7,17.5-24.7
	C1777.1,1234.6,1761.3,1228.3,1749.1,1228.1z M1774.7,1253.4c-3.4,6.9-9.3,9.1-18.3,11c-2.7,0.5-5.4,0.5-8,0v-31.1
	c5.1,0.5,10.1,1.5,15,3C1770.3,1238.3,1778,1246.5,1774.7,1253.4z"/>
<g id="frogl">
	<path class="st7" d="M1721.3,1214.3c-3.1-3.3-6.2-6.7-9.4-10c-3.1-3.3-6.3-6.6-9.1-10.2c-1.5-1.8-2.8-3.8-3.8-5.9
		c-1.1-2.2-1.6-4.7-1.3-7.1c0.4-2.4,1.3-4.7,2.8-6.7c1.3-1.9,2.8-3.7,4.5-5.4c1.6-1.6,3.3-3.2,5-4.7l5.1-4.6
		c3.4-3.1,6.7-6.2,9.7-9.5c1.5-1.6,2.9-3.4,4.2-5.2c1.3-1.8,2.2-3.8,2.8-6c0.6-2.1,0.5-4.4-0.1-6.5c-0.7-2.1-1.8-4.2-3.2-5.9
		c1.6,1.7,2.8,3.6,3.7,5.8c0.9,2.2,1.1,4.6,0.6,6.9s-1.4,4.5-2.7,6.5c-1.2,2-2.6,3.8-4.1,5.6c-3,3.4-6.2,6.7-9.6,9.8
		c-3.3,3.2-6.8,6.1-10,9.3c-1.6,1.6-3,3.2-4.3,5.1c-1.3,1.7-2.1,3.7-2.5,5.8c-0.2,2.1,0.1,4.2,1.1,6.1c1,2,2.1,3.9,3.5,5.7
		c2.7,3.6,5.7,7.1,8.6,10.5C1715.6,1207.2,1718.6,1210.7,1721.3,1214.3z"/>
</g>
<g id="frogr">
	<path class="st7" d="M1734.3,1188.3c-2.9-3.2-5.3-6.8-7.1-10.8c-0.9-2-1.4-4.1-1.7-6.3c-0.3-2.2-0.2-4.4,0.3-6.5
		c1-4.3,3.1-8.2,6.1-11.5c2.9-3.2,5.9-6.3,9.2-9.1c6.4-5.6,10.6-13.8,10.5-22.3c0-4.3-0.9-8.5-2.6-12.4c-1.7-4-3.9-7.7-6.6-11
		c2.8,3.3,5.2,6.9,7,10.8c1.8,4,2.8,8.3,2.9,12.6c0.1,4.4-0.9,8.7-2.8,12.7s-4.5,7.5-7.8,10.4c-3.2,2.8-6.3,5.8-9.2,9
		c-2.9,3.2-4.9,6.9-6,11.1c-0.5,2.1-0.6,4.2-0.4,6.3c0.2,2.1,0.8,4.2,1.6,6.2C1729.3,1181.3,1731.6,1185,1734.3,1188.3z"/>
</g>
<path class="st4" d="M1553.3,1197.2c0,0,5-3.8,12.8,0c8.2,4.1-4.8,32.2-4.8,32.2c-2.2,0.6-4.6,0.6-6.8,0c-3.1-0.8-7.2-2-7.2-2
	S1538.3,1212,1553.3,1197.2"/>
<path class="st3" d="M1560.3,1195.3c0,0,0.4-9.6-14.8-5.8s-15.2,9.8-27.7,7.6c-33.4-5.7-41.5,9.2-44.5,16.2s-4,16,3,16
	c12.3,0,24-7,49-4l25,3c0,0-3.6-5.4,0-19.3C1553.3,1197.3,1560.3,1195.3,1560.3,1195.3z"/>
<path class="st6" d="M1373.9,967.1l164.2,2.4c4.7,0.1,8.8,3.3,9.9,7.9l32.7,129.2c0.1,0.5,0.6,0.9,1.1,0.9h64.9
	c2.2,0,4.1,1.7,4.2,3.9l0,0c0.2,2.3-1.6,4.4-3.9,4.5c-0.1,0-0.2,0-0.3,0l-254.1-0.9c-5.1,0-9.5-3.8-10.3-8.9L1363.5,979
	c-0.8-5.7,3.1-11,8.8-11.8C1372.8,967.1,1373.4,967.1,1373.9,967.1z"/>
<path class="st4" d="M1593.3,833.3c0,0-5.7,13.2-19,17c-7,2-10,2-11.8,1.1c-0.5-0.2,0.4,0.8,0.8,1.9c4.1,12.3-7,21-7,21
	c-8,6-15,5-15,5s-8.6,36.2,18.7,53.6s20.1,10.5,20.1,10.5s-1.1,21.3,14.2,26.9c25.9,9.5,34-13,34-13s-2.7-9.8-3-27
	c-0.3-17.4,3-36.2,4-37c2-1.5,14.3-1.9,13-13c-2-17-14-4-14-4s-10.7-9.7-20-19C1603.3,852.3,1593.3,833.3,1593.3,833.3z"/>
<path class="st4" d="M1629.3,1072.3l6.9,32.6c0,0-27.1-1.3-29-4.9c-4.8,5.7-10.8,7.2-13.8,6.3s3.9-8.9,3.9-8.9s-9.2,4.9-12,3
	c-3-2,0.7-7.4,4.9-10.2c-3.9-0.8-7.9,0.2-9.2-0.7c-5.3-3.5,4.4-7.1,7.4-9.1c-9,0-14-3-4.5-8c10-5.3,27.1-12.8,38.5-4.9
	C1629.3,1072.3,1629.3,1072.3,1629.3,1072.3z"/>
<ellipse transform="matrix(0.9951 -9.839526e-02 9.839526e-02 0.9951 -81.7427 157.0357)" class="st5" cx="1551.2" cy="907.3" rx="9" ry="7"/>
<ellipse transform="matrix(0.9666 -0.2561 0.2561 0.9666 -175.5846 440.4275)" class="st5" cx="1603.2" cy="894.4" rx="10" ry="8"/>
<circle class="st0" cx="1554.3" cy="889.3" r="3"/>
<circle class="st0" cx="1590.3" cy="883.3" r="3"/>
<path class="st0" d="M1582.4,918.1c1.3,0.2,2.7-0.1,3.9-0.7c0.6-0.3,1.1-0.7,1.6-1.2c0.2-0.2,0.5-0.5,0.7-0.7
	c0.2-0.3,0.5-0.5,0.7-0.8c-0.1,0.4-0.2,0.7-0.3,1.1c-0.2,0.3-0.3,0.7-0.6,1c-0.4,0.6-1,1.2-1.7,1.5c-0.7,0.4-1.5,0.6-2.2,0.6
	C1583.8,918.8,1583,918.6,1582.4,918.1z"/>
<path class="st0" d="M1573.5,907.9c-0.1,0.2-0.3,0.4-0.6,0.6c-0.3,0.2-0.6,0.2-0.9,0s-0.5-0.5-0.5-0.8s0.1-0.5,0.2-0.8
	c0.1,0.2,0.2,0.5,0.3,0.6c0.1,0.2,0.2,0.3,0.3,0.3C1572.7,907.9,1573.1,908,1573.5,907.9z"/>
</svg>
